<svg width="14" height="14" viewBox="0 0 14 14" fill="none" xmlns="http://www.w3.org/2000/svg">
<path fill-rule="evenodd" clip-rule="evenodd" d="M12.099 6.14937C12.3933 6.08607 12.5028 6.12694 12.5267 6.13844C12.5365 6.15897 12.5589 6.2263 12.5434 6.38517C12.5209 6.6158 12.4241 6.94217 12.2264 7.35067C11.834 8.16167 11.1102 9.16167 10.1359 10.1359C9.16171 11.1101 8.16174 11.8339 7.35071 12.2264C6.94221 12.424 6.61584 12.5209 6.38521 12.5434C6.22637 12.5589 6.15904 12.5365 6.13847 12.5267C6.12697 12.5027 6.08611 12.3933 6.14941 12.099C6.22607 11.7424 6.43031 11.2625 6.77527 10.7012C7.19317 10.0212 7.79057 9.26544 8.52804 8.52797C9.26547 7.79054 10.0212 7.1931 10.7012 6.7752C11.2626 6.43027 11.7425 6.22604 12.099 6.14937ZM0.411304 8.6874L5.19391 13.47C5.56777 13.8439 6.07491 13.9133 6.51457 13.8704C6.96017 13.827 7.44561 13.6617 7.93144 13.4266C8.90907 12.9535 10.0279 12.1295 11.0787 11.0787C12.1296 10.0279 12.9536 8.90904 13.4266 7.9314C13.6617 7.44557 13.827 6.96014 13.8704 6.51454C13.9133 6.07487 13.8439 5.56774 13.47 5.19387L8.68744 0.411259C8.22491 -0.051271 7.56617 -0.0507877 7.03604 0.0632223C6.47671 0.183512 5.85181 0.468699 5.22054 0.856639C4.43994 1.33636 3.60337 2.00181 2.80261 2.80257C2.00185 3.6033 1.3364 4.4399 0.856681 5.2205C0.468744 5.85177 0.183557 6.47667 0.0632671 7.036C-0.0507462 7.56614 -0.0512295 8.22487 0.411304 8.6874Z" fill="#0D121C"/>
</svg>
